<svg width="24" height="24" viewBox="0 0 24 24" fill="none" xmlns="http://www.w3.org/2000/svg">
<path fill-rule="evenodd" clip-rule="evenodd" d="M21.8909 20.3434C22.0891 20.5485 22.1998 20.8227 22.1998 21.1079C22.1998 21.3932 22.0891 21.6673 21.8909 21.8725L21.8891 21.8743C21.7869 21.9775 21.6653 22.0593 21.5313 22.1152C21.3973 22.171 21.2536 22.1998 21.1084 22.1998C20.9633 22.1998 20.8196 22.171 20.6856 22.1152C20.5517 22.0593 20.4301 21.9776 20.328 21.8745L15.1437 16.6878C13.5114 17.941 11.4697 18.5437 9.41496 18.3745C7.30056 18.2005 5.3332 17.2223 3.91737 15.6412C2.50155 14.0601 1.74488 11.9963 1.80291 9.87408C1.86094 7.75186 2.72925 5.73251 4.22936 4.23127C5.72947 2.73002 7.74735 1.86099 9.86809 1.80291C11.9888 1.74484 14.0512 2.50213 15.6311 3.91904C17.211 5.33595 18.1884 7.30476 18.3623 9.42063C18.5313 11.4767 17.9291 13.5198 16.677 15.1534L21.8909 20.3434ZM6.72695 15.1928C7.72947 15.8632 8.9081 16.221 10.1138 16.221C11.7306 16.221 13.2812 15.5782 14.4244 14.4341C15.5677 13.2899 16.21 11.7381 16.21 10.12C16.21 8.91325 15.8525 7.73366 15.1826 6.73034C14.5127 5.72703 13.5606 4.94506 12.4467 4.48331C11.3328 4.02155 10.107 3.90074 8.9245 4.13614C7.74197 4.37154 6.65573 4.95258 5.80314 5.80582C4.95055 6.65905 4.36992 7.74616 4.13468 8.92967C3.89944 10.1132 4.02017 11.3399 4.4816 12.4548C4.94303 13.5696 5.72443 14.5225 6.72695 15.1928Z" fill="#7F8895"/>
</svg>
