<svg width="25" height="24" viewBox="0 0 25 24" fill="none" xmlns="http://www.w3.org/2000/svg">
<path d="M18.5 14.0001C17.9092 14.004 17.3266 14.1388 16.794 14.3947C16.2615 14.6506 15.7922 15.0213 15.42 15.4801L10.32 13.1301C10.5598 12.3959 10.5598 11.6044 10.32 10.8701L15.42 8.52011C16.0216 9.24608 16.8604 9.73619 17.7882 9.90395C18.716 10.0717 19.6732 9.90634 20.491 9.43702C21.3087 8.96769 21.9344 8.22459 22.2576 7.33886C22.5808 6.45312 22.5807 5.4817 22.2573 4.59602C21.934 3.71035 21.3082 2.96736 20.4903 2.49818C19.6725 2.02901 18.7152 1.86381 17.7875 2.03174C16.8597 2.19967 16.021 2.68993 15.4196 3.41601C14.8181 4.14208 14.4924 5.05729 14.5 6.00011C14.503 6.23835 14.5265 6.47588 14.57 6.71011L9.29003 9.14011C8.72711 8.58969 8.01427 8.21763 7.24083 8.07054C6.46739 7.92345 5.66775 8.00788 4.94208 8.31325C4.21641 8.61861 3.59699 9.13133 3.16143 9.78718C2.72587 10.443 2.49353 11.2128 2.49353 12.0001C2.49353 12.7874 2.72587 13.5572 3.16143 14.2131C3.59699 14.8689 4.21641 15.3816 4.94208 15.687C5.66775 15.9923 6.46739 16.0768 7.24083 15.9297C8.01427 15.7826 8.72711 15.4105 9.29003 14.8601L14.57 17.2901C14.5265 17.5243 14.503 17.7619 14.5 18.0001C14.5 18.7912 14.7346 19.5646 15.1742 20.2224C15.6137 20.8802 16.2384 21.3929 16.9693 21.6956C17.7002 21.9984 18.5045 22.0776 19.2804 21.9233C20.0563 21.7689 20.769 21.388 21.3285 20.8285C21.8879 20.2691 22.2688 19.5564 22.4232 18.7805C22.5775 18.0046 22.4983 17.2003 22.1955 16.4694C21.8928 15.7385 21.3801 15.1138 20.7223 14.6742C20.0645 14.2347 19.2912 14.0001 18.5 14.0001ZM18.5 4.00011C18.8956 4.00011 19.2823 4.11741 19.6112 4.33718C19.9401 4.55694 20.1964 4.8693 20.3478 5.23475C20.4992 5.6002 20.5388 6.00233 20.4616 6.3903C20.3844 6.77826 20.1939 7.13462 19.9142 7.41433C19.6345 7.69403 19.2782 7.88451 18.8902 7.96169C18.5022 8.03886 18.1001 7.99925 17.7347 7.84787C17.3692 7.6965 17.0569 7.44015 16.8371 7.11125C16.6173 6.78236 16.5 6.39568 16.5 6.00011C16.5 5.46968 16.7107 4.96097 17.0858 4.5859C17.4609 4.21083 17.9696 4.00011 18.5 4.00011ZM6.50003 14.0001C6.10447 14.0001 5.71779 13.8828 5.38889 13.6631C5.05999 13.4433 4.80364 13.1309 4.65227 12.7655C4.50089 12.4 4.46129 11.9979 4.53846 11.6099C4.61563 11.222 4.80611 10.8656 5.08581 10.5859C5.36552 10.3062 5.72189 10.1157 6.10985 10.0385C6.49781 9.96137 6.89994 10.001 7.2654 10.1524C7.63085 10.3037 7.9432 10.5601 8.16297 10.889C8.38273 11.2179 8.50003 11.6046 8.50003 12.0001C8.50003 12.5305 8.28931 13.0393 7.91424 13.4143C7.53917 13.7894 7.03046 14.0001 6.50003 14.0001ZM18.5 20.0001C18.1045 20.0001 17.7178 19.8828 17.3889 19.6631C17.06 19.4433 16.8036 19.1309 16.6523 18.7655C16.5009 18.4 16.4613 17.9979 16.5385 17.6099C16.6156 17.222 16.8061 16.8656 17.0858 16.5859C17.3655 16.3062 17.7219 16.1157 18.1098 16.0385C18.4978 15.9614 18.8999 16.001 19.2654 16.1524C19.6308 16.3037 19.9432 16.5601 20.163 16.889C20.3827 17.2179 20.5 17.6046 20.5 18.0001C20.5 18.5305 20.2893 19.0393 19.9142 19.4143C19.5392 19.7894 19.0305 20.0001 18.5 20.0001Z" fill="#546071"/>
</svg>
